<svg width="65" height="87" viewBox="0 0 65 87" fill="none" xmlns="http://www.w3.org/2000/svg">
<path d="M48.499 21.8522C48.499 33.1288 41.1825 41.8819 32.5879 41.8819C23.9928 41.8819 16.6763 33.1288 16.6763 21.8522C16.6763 16.0665 17.3069 11.0648 19.566 7.51908C21.7594 4.07655 25.6175 1.82227 32.5879 1.82227C39.5583 1.82227 43.4162 4.07654 45.6095 7.51906C47.8685 11.0647 48.499 16.0665 48.499 21.8522Z" stroke="#C2C2C2" stroke-width="2"/>
<mask id="path-2-inside-1" fill="white">
<path d="M0.645562 74.9902C0.642872 74.282 0.640182 74.7906 0.645562 74.9902V74.9902Z"/>
</mask>
<path d="M2.64555 74.9826C2.64487 74.8054 2.64418 74.6979 2.64355 74.6409C2.64339 74.6269 2.64318 74.6113 2.6429 74.5968C2.64277 74.5905 2.64251 74.5776 2.642 74.5624C2.64177 74.5556 2.64122 74.5398 2.64015 74.52C2.63963 74.5103 2.6386 74.4921 2.63681 74.4694C2.63586 74.4575 2.63134 74.3981 2.61987 74.3233C2.61601 74.2981 2.59963 74.189 2.55943 74.0543C2.53365 73.9742 2.44555 73.7599 2.37676 73.6293C2.20697 73.3797 1.47298 72.8066 0.860729 72.6381C0.138077 72.691 -0.801473 73.2428 -1.03401 73.5363C-1.12387 73.689 -1.23531 73.939 -1.26636 74.0307C-1.31307 74.1804 -1.33088 74.3026 -1.33455 74.3268C-1.34656 74.406 -1.35095 74.469 -1.3518 74.4806C-1.35352 74.504 -1.35447 74.5227 -1.35493 74.5325C-1.3565 74.5657 -1.35692 74.5931 -1.35698 74.5961C-1.35728 74.6131 -1.35738 74.6295 -1.35744 74.6392C-1.35783 74.7133 -1.35722 74.9141 -1.35371 75.0441L2.64484 74.9363C2.64296 74.8667 2.64223 74.7134 2.64251 74.6604C2.64254 74.6542 2.64255 74.6582 2.64239 74.6671C2.64234 74.67 2.64224 74.6754 2.64205 74.6824C2.64191 74.6877 2.6415 74.7026 2.64058 74.7219C2.64014 74.7313 2.63921 74.7496 2.63751 74.7728C2.63669 74.7841 2.63232 74.8468 2.62033 74.9259C2.61668 74.95 2.59888 75.0721 2.55218 75.2218C2.52114 75.3135 2.4097 75.5635 2.31985 75.7161C2.08731 76.0096 1.14777 76.5615 0.425122 76.6143C-0.187121 76.4458 -0.921107 75.8727 -1.09089 75.6231C-1.15968 75.4926 -1.24777 75.2783 -1.27354 75.1982C-1.31373 75.0635 -1.3301 74.9545 -1.33394 74.9294C-1.34539 74.8547 -1.34989 74.7956 -1.35081 74.784C-1.35258 74.7616 -1.35359 74.7438 -1.35408 74.7346C-1.35509 74.7158 -1.35559 74.7013 -1.35577 74.6961C-1.35617 74.6841 -1.35632 74.6758 -1.35633 74.6755C-1.35637 74.6731 -1.35632 74.6754 -1.3562 74.6857C-1.35575 74.7264 -1.3551 74.8208 -1.35442 74.9978L2.64555 74.9826Z" fill="#C2C2C2" mask="url(#path-2-inside-1)"/>
<mask id="path-4-inside-2" fill="white">
<path d="M64.5283 75.549C64.5368 75.3551 64.5312 74.204 64.5283 75.549V75.549Z"/>
</mask>
<path d="M66.5264 75.6367C66.5332 75.4807 66.5332 75.0904 66.5326 74.9622C66.5325 74.9422 66.5323 74.9223 66.5321 74.9048C66.532 74.8964 66.5319 74.8851 66.5317 74.8731C66.5315 74.8671 66.5313 74.8579 66.531 74.847C66.5308 74.8403 66.53 74.815 66.528 74.7833C66.5273 74.7717 66.5247 74.7289 66.5183 74.6745C66.5157 74.652 66.5078 74.5856 66.4905 74.502C66.4807 74.4568 66.4507 74.3421 66.429 74.273C66.3851 74.154 66.2034 73.8078 66.0438 73.5967C65.5693 73.1959 64.1703 72.9387 63.4074 73.2517C63.092 73.5175 62.7486 73.9999 62.674 74.1647C62.5855 74.3866 62.5587 74.5782 62.5577 74.5844C62.5428 74.6757 62.5378 74.7492 62.5372 74.7569C62.5341 74.7978 62.533 74.8307 62.5328 74.8365C62.5323 74.8489 62.5321 74.8593 62.5319 74.8657C62.5314 74.8884 62.5311 74.9138 62.5309 74.9338C62.53 75.0213 62.5291 75.2094 62.5283 75.5447L66.5283 75.5533C66.529 75.2161 66.5299 75.0437 66.5306 74.9748C66.5308 74.9558 66.5309 74.9548 66.5307 74.9623C66.5307 74.9648 66.5305 74.9721 66.5301 74.9821C66.53 74.9854 66.529 75.0164 66.526 75.0562C66.5255 75.0633 66.5205 75.1364 66.5056 75.2275C66.5047 75.2335 66.4778 75.425 66.3893 75.6468C66.3148 75.8117 65.9714 76.294 65.656 76.5598C64.8931 76.8728 63.4942 76.6156 63.0196 76.2148C62.8601 76.0037 62.6784 75.6575 62.6345 75.5386C62.6128 75.4695 62.5828 75.3548 62.573 75.3098C62.5557 75.2262 62.5478 75.16 62.5452 75.1376C62.5389 75.0836 62.5363 75.0413 62.5357 75.0303C62.5314 74.9618 62.5322 74.9031 62.5326 74.9817C62.5329 75.0457 62.5329 75.1588 62.5324 75.2671C62.5321 75.321 62.5316 75.3706 62.5311 75.4105C62.5304 75.4576 62.5299 75.4701 62.5302 75.4613L66.5264 75.6367Z" fill="#C2C2C2" mask="url(#path-4-inside-2)"/>
<path d="M41.9961 45.7901C42.0755 45.7156 42.1473 45.6453 42.2118 45.5804C51.7143 47.3854 56.7926 49.6772 59.6437 53.6797C62.589 57.8144 63.3343 63.9924 63.4916 74.1573C63.5016 74.8043 63.5093 75.1897 63.5153 75.4002C63.518 75.4949 63.521 75.5808 63.5256 75.6375C63.5257 75.6389 63.5261 75.6449 63.5271 75.6545C63.5265 75.9447 63.5262 76.3333 63.5261 76.8474C63.5034 76.8829 63.4768 76.9233 63.4458 76.9685C63.2935 77.1908 63.037 77.5281 62.6416 77.9434C61.8518 78.7727 60.5 79.9211 58.3021 81.0853C53.9042 83.4149 46.0914 85.8214 32.5869 85.8214C19.0821 85.8214 11.2693 83.4149 6.87144 81.0853C4.67359 79.9211 3.32185 78.7727 2.53211 77.9434C2.13668 77.5281 1.88018 77.1908 1.72791 76.9685C1.69697 76.9234 1.6703 76.8829 1.64763 76.8475C1.64746 76.0411 1.64652 75.5087 1.64557 75.1673C1.64614 75.1625 1.6466 75.1583 1.64698 75.1548C1.64981 75.1283 1.65161 75.1035 1.65276 75.0859C1.6552 75.0486 1.65735 75.0027 1.65941 74.9501C1.66764 74.7393 1.67859 74.3061 1.69333 73.5028L1.69333 73.5028C1.87409 63.6108 2.66852 57.5878 5.62631 53.546C8.4946 49.6264 13.5646 47.3654 22.9615 45.5803C23.026 45.6453 23.0979 45.7156 23.1772 45.7902C23.5842 46.1725 24.1901 46.6705 25.0105 47.1647C26.6578 48.1571 29.1497 49.1216 32.5869 49.1216C36.024 49.1216 38.5158 48.1571 40.163 47.1647C40.9834 46.6704 41.5892 46.1724 41.9961 45.7901ZM64.5202 75.5224L63.5283 75.4987L63.5284 75.4975L63.5286 75.4942L63.5298 75.4773C63.5304 75.4706 63.5319 75.453 63.5351 75.4298C63.5353 75.4284 63.5453 75.3434 63.5802 75.2429C63.5908 75.2121 63.6113 75.1577 63.6458 75.0939C63.6744 75.0413 63.7486 74.9137 63.8921 74.7964C64.0233 74.6892 64.2348 74.5773 64.4984 74.5708C64.5081 75.1432 64.5152 75.4201 64.5202 75.5224ZM1.64393 74.9627L0.657251 74.9784C0.663249 74.8561 0.67139 74.5837 0.682262 74.062C0.971693 74.0708 1.18584 74.2023 1.30649 74.3073C1.50757 74.4824 1.57961 74.6913 1.58877 74.7179C1.58913 74.7189 1.58939 74.7196 1.58956 74.7201C1.61168 74.7812 1.62275 74.8309 1.62715 74.8516C1.63674 74.8968 1.64073 74.932 1.64178 74.9413L1.64178 74.9413C1.64277 74.95 1.64346 74.9573 1.64393 74.9627ZM23.3262 44.4946C3.79142 48.1042 1.0535 53.7839 0.693499 73.4845L41.847 44.4946C41.847 44.4946 39.0669 48.1216 32.5869 48.1216C26.1069 48.1216 23.3262 44.4946 23.3262 44.4946Z" stroke="#C2C2C2" stroke-width="2"/>
</svg>
