<svg width="85" height="87" viewBox="0 0 85 87" fill="none" xmlns="http://www.w3.org/2000/svg">
<g clip-path="url(#clip0)">
<path d="M58.4365 21.1589C58.4365 32.4355 51.12 41.1886 42.5254 41.1886C33.9303 41.1886 26.6138 32.4355 26.6138 21.1589C26.6138 15.3731 27.2444 10.3714 29.5035 6.82572C31.6969 3.38319 35.555 1.12891 42.5254 1.12891C49.4958 1.12891 53.3537 3.38318 55.547 6.8257C57.806 10.3714 58.4365 15.3731 58.4365 21.1589Z" stroke="#C2C2C2" stroke-width="2"/>
<mask id="path-3-inside-1" fill="white">
<path d="M10.5831 74.2976C10.5804 73.5893 10.5777 74.098 10.5831 74.2976V74.2976Z"/>
</mask>
<path d="M12.583 74.29C12.5824 74.1128 12.5817 74.0052 12.581 73.9483C12.5809 73.9342 12.5807 73.9187 12.5804 73.9042C12.5803 73.8979 12.58 73.885 12.5795 73.8698C12.5793 73.8629 12.5787 73.8471 12.5777 73.8273C12.5771 73.8177 12.5761 73.7995 12.5743 73.7768C12.5734 73.7648 12.5688 73.7055 12.5574 73.6307C12.5535 73.6055 12.5371 73.4964 12.4969 73.3617C12.4711 73.2815 12.383 73.0672 12.3143 72.9367C12.1445 72.6871 11.4105 72.114 10.7982 71.9455C10.0756 71.9984 9.13603 72.5502 8.90349 72.8437C8.81363 72.9963 8.70219 73.2464 8.67114 73.3381C8.62443 73.4878 8.60662 73.61 8.60295 73.6341C8.59094 73.7134 8.58655 73.7764 8.5857 73.7879C8.58398 73.8114 8.58303 73.8301 8.58257 73.8399C8.581 73.873 8.58058 73.9004 8.58052 73.9035C8.58022 73.9205 8.58012 73.9369 8.58006 73.9466C8.57967 74.0207 8.58028 74.2215 8.58379 74.3515L12.5823 74.2437C12.5805 74.1741 12.5797 74.0208 12.58 73.9677C12.58 73.9615 12.5801 73.9656 12.5799 73.9745C12.5798 73.9774 12.5797 73.9828 12.5796 73.9898C12.5794 73.9951 12.579 74.01 12.5781 74.0293C12.5776 74.0387 12.5767 74.057 12.575 74.0801C12.5742 74.0914 12.5698 74.1542 12.5578 74.2333C12.5542 74.2574 12.5364 74.3795 12.4897 74.5292C12.4586 74.6208 12.3472 74.8709 12.2573 75.0235C12.0248 75.317 11.0853 75.8688 10.3626 75.9217C9.75038 75.7532 9.01639 75.1801 8.84661 74.9305C8.77782 74.8 8.68973 74.5857 8.66396 74.5055C8.62377 74.3709 8.6074 74.2618 8.60356 74.2368C8.59211 74.1621 8.58761 74.103 8.58669 74.0913C8.58492 74.0689 8.58391 74.0512 8.58342 74.042C8.58241 74.0231 8.58191 74.0086 8.58173 74.0034C8.58133 73.9915 8.58118 73.9832 8.58117 73.9829C8.58113 73.9805 8.58118 73.9828 8.5813 73.9931C8.58175 74.0338 8.5824 74.1282 8.58308 74.3052L12.583 74.29Z" fill="#C2C2C2" mask="url(#path-3-inside-1)"/>
<mask id="path-5-inside-2" fill="white">
<path d="M74.4658 74.8561C74.4743 74.6623 74.4687 73.5111 74.4658 74.8561V74.8561Z"/>
</mask>
<path d="M76.4639 74.9438C76.4707 74.7878 76.4707 74.3976 76.4701 74.2693C76.47 74.2494 76.4698 74.2294 76.4696 74.212C76.4695 74.2035 76.4694 74.1923 76.4692 74.1802C76.469 74.1742 76.4688 74.165 76.4685 74.1541C76.4683 74.1474 76.4675 74.1221 76.4655 74.0904C76.4648 74.0789 76.4622 74.036 76.4558 73.9817C76.4532 73.9591 76.4453 73.8928 76.428 73.8091C76.4182 73.764 76.3882 73.6492 76.3665 73.5801C76.3226 73.4612 76.1409 73.1149 75.9813 72.9039C75.5068 72.5031 74.1078 72.2458 73.3449 72.5588C73.0295 72.8247 72.6861 73.307 72.6115 73.4719C72.523 73.6937 72.4962 73.8853 72.4952 73.8915C72.4803 73.9828 72.4753 74.0563 72.4747 74.064C72.4716 74.105 72.4705 74.1378 72.4703 74.1436C72.4698 74.156 72.4696 74.1664 72.4694 74.1728C72.4689 74.1956 72.4686 74.2209 72.4684 74.2409C72.4675 74.3284 72.4666 74.5165 72.4658 74.8518L76.4658 74.8604C76.4665 74.5233 76.4674 74.3508 76.4681 74.2819C76.4683 74.2629 76.4684 74.2619 76.4682 74.2694C76.4682 74.272 76.468 74.2793 76.4676 74.2892C76.4675 74.2925 76.4665 74.3236 76.4635 74.3634C76.463 74.3705 76.458 74.4435 76.4431 74.5346C76.4422 74.5406 76.4153 74.7322 76.3268 74.954C76.2523 75.1188 75.9089 75.6011 75.5935 75.867C74.8306 76.18 73.4317 75.9227 72.9571 75.5219C72.7976 75.3109 72.6159 74.9647 72.572 74.8457C72.5503 74.7767 72.5203 74.662 72.5105 74.6169C72.4932 74.5333 72.4853 74.4671 72.4827 74.4447C72.4764 74.3907 72.4738 74.3484 72.4732 74.3374C72.4689 74.2689 72.4697 74.2102 72.4701 74.2888C72.4704 74.3529 72.4704 74.4659 72.4699 74.5742C72.4696 74.6282 72.4691 74.6778 72.4686 74.7176C72.4679 74.7648 72.4674 74.7772 72.4677 74.7684L76.4639 74.9438Z" fill="#C2C2C2" mask="url(#path-5-inside-2)"/>
<path fill-rule="evenodd" clip-rule="evenodd" d="M74.4635 76.4228C74.4635 76.0048 74.4486 75.0043 74.4361 74.1661C74.427 73.5502 74.4191 73.0219 74.4194 72.8766C74.0653 53.1062 71.3476 47.4155 51.7844 43.8008C51.7844 43.8008 49.0043 47.4278 42.5243 47.4278C36.0443 47.4278 33.2636 43.8008 33.2636 43.8008C13.8692 47.3844 11.0311 53.0085 10.6391 72.3682C10.6395 72.4991 10.6318 72.9506 10.6221 73.5201C10.6062 74.4481 10.5851 75.6895 10.5851 76.3678V76.4228C10.5851 76.4228 15.2872 86.1275 42.5243 86.1275C66.2738 86.1275 72.89 78.7487 74.1948 76.8593C74.3864 76.5819 74.4635 76.4228 74.4635 76.4228ZM12.6391 72.3886C12.6387 72.5671 12.6307 73.036 12.6213 73.5861C12.6183 73.7582 12.6152 73.9383 12.6122 74.1198C12.6023 74.7131 12.5926 75.3433 12.588 75.8466C12.7194 76.0248 12.9159 76.2682 13.1937 76.5599C13.9068 77.3087 15.1714 78.3924 17.277 79.5078C21.4925 81.7408 29.1333 84.1275 42.5243 84.1275C65.1344 84.1275 71.3556 77.3407 72.4592 75.8484C72.455 75.4727 72.4483 75.0004 72.4414 74.5359C72.4397 74.4225 72.438 74.3091 72.4364 74.1976C72.4277 73.6128 72.4198 73.0823 72.4194 72.8948C72.2402 62.9355 71.4312 57.2187 68.6893 53.4588C66.1134 49.9264 61.5135 47.7315 52.4654 45.9658C52.0217 46.3661 51.4093 46.8497 50.6165 47.3274C48.8272 48.4054 46.1586 49.4278 42.5243 49.4278C38.89 49.4278 36.2213 48.4054 34.4319 47.3274C33.639 46.8497 33.0265 46.3661 32.5827 45.9658C23.6157 47.7157 19.0181 49.8871 16.4295 53.363C13.6829 57.0512 12.8373 62.6473 12.6391 72.3886Z" fill="#C2C2C2"/>
</g>
<defs>
<clipPath id="clip0">
<rect x="0.525391" y="0.128906" width="84" height="86" fill="white"/>
</clipPath>
</defs>
</svg>
