<svg width="14" height="13" viewBox="0 0 14 13" fill="none" xmlns="http://www.w3.org/2000/svg">
<path d="M5.05615 7.21815C5.05615 7.06783 4.9139 6.94604 4.73838 6.94604H3.62949C3.45417 6.94604 3.31189 7.06783 3.31189 7.21815V8.16851C3.31189 8.31903 3.45417 8.44086 3.62949 8.44086H4.73838C4.9139 8.44086 5.05615 8.31903 5.05615 8.16851V7.21815Z" fill="#C4C4C4"/>
<path d="M7.82784 7.21815C7.82784 7.06783 7.68556 6.94604 7.51038 6.94604H6.40134C6.22602 6.94604 6.08374 7.06783 6.08374 7.21815V8.16851C6.08374 8.31903 6.22602 8.44086 6.40134 8.44086H7.51038C7.68556 8.44086 7.82784 8.31903 7.82784 8.16851V7.21815Z" fill="#C4C4C4"/>
<path d="M10.5989 7.21815C10.5989 7.06783 10.4566 6.94604 10.2813 6.94604H9.17238C8.99686 6.94604 8.85461 7.06783 8.85461 7.21815V8.16851C8.85461 8.31903 8.99686 8.44086 9.17238 8.44086H10.2813C10.4566 8.44086 10.5989 8.31903 10.5989 8.16851V7.21815Z" fill="#C4C4C4"/>
<path d="M5.05615 9.59403C5.05615 9.44346 4.9139 9.32178 4.73838 9.32178H3.62949C3.45417 9.32178 3.31189 9.44346 3.31189 9.59403V10.5442C3.31189 10.6946 3.45417 10.8164 3.62949 10.8164H4.73838C4.9139 10.8164 5.05615 10.6946 5.05615 10.5442V9.59403Z" fill="#C4C4C4"/>
<path d="M7.82784 9.59403C7.82784 9.44346 7.68556 9.32178 7.51038 9.32178H6.40134C6.22602 9.32178 6.08374 9.44346 6.08374 9.59403V10.5442C6.08374 10.6946 6.22602 10.8164 6.40134 10.8164H7.51038C7.68556 10.8164 7.82784 10.6946 7.82784 10.5442V9.59403Z" fill="#C4C4C4"/>
<path d="M10.5989 9.59403C10.5989 9.44346 10.4566 9.32178 10.2814 9.32178H9.17238C8.99686 9.32178 8.85461 9.44346 8.85461 9.59403V10.5442C8.85461 10.6946 8.99686 10.8164 9.17238 10.8164H10.2814C10.4566 10.8164 10.5989 10.6946 10.5989 10.5442V9.59403Z" fill="#C4C4C4"/>
<path d="M12.5817 1.93417V3.38576C12.5817 4.04187 11.9607 4.57059 11.1954 4.57059H10.3209C9.55547 4.57059 8.92627 4.04187 8.92627 3.38576V1.92896H4.98455V3.38576C4.98455 4.04187 4.35538 4.57059 3.59009 4.57059H2.71539C1.95008 4.57059 1.32913 4.04187 1.32913 3.38576V1.93417C0.66024 1.95145 0.110596 2.42587 0.110596 3.00899V11.516C0.110596 12.1101 0.672372 12.598 1.36547 12.598H12.5454C13.2374 12.598 13.8002 12.1091 13.8002 11.516V3.00899C13.8002 2.42587 13.2506 1.95145 12.5817 1.93417ZM12.1755 10.9863C12.1755 11.243 11.9327 11.4513 11.633 11.4513H2.25391C1.95426 11.4513 1.7114 11.243 1.7114 10.9863V6.59209C1.7114 6.33525 1.95423 6.12696 2.25391 6.12696H11.633C11.9326 6.12696 12.1755 6.33525 12.1755 6.59209L12.1755 10.9863Z" fill="#C4C4C4"/>
<path d="M2.71202 3.79227H3.57706C3.83962 3.79227 4.0525 3.61007 4.0525 3.38502V1.00531C4.0525 0.780229 3.83962 0.5979 3.57706 0.5979H2.71202C2.44943 0.5979 2.23657 0.780229 2.23657 1.00531V3.38502C2.23657 3.61007 2.44943 3.79227 2.71202 3.79227Z" fill="#C4C4C4"/>
<path d="M10.3099 3.79227H11.1749C11.4373 3.79227 11.6502 3.61007 11.6502 3.38502V1.00531C11.6502 0.780229 11.4373 0.5979 11.1749 0.5979H10.3099C10.0474 0.5979 9.83447 0.780229 9.83447 1.00531V3.38502C9.83447 3.61007 10.0474 3.79227 10.3099 3.79227Z" fill="#C4C4C4"/>
</svg>
