<svg width="9" height="9" viewBox="0 0 9 9" fill="none" xmlns="http://www.w3.org/2000/svg">
<path fill-rule="evenodd" clip-rule="evenodd" d="M5.3192 4.17141L8.1715 1.31911C8.43406 1.05655 8.43406 0.630862 8.1715 0.368342C7.90894 0.105785 7.48329 0.105785 7.22073 0.368342L4.3684 3.22068L1.51606 0.368305C1.25351 0.105747 0.827855 0.105747 0.565298 0.368305C0.302778 0.630862 0.302778 1.05655 0.565298 1.31907L3.41763 4.17137L0.565298 7.0237C0.302778 7.28626 0.302778 7.71195 0.565298 7.97447C0.827855 8.23703 1.25351 8.23703 1.51606 7.97447L4.3684 5.12213L7.22073 7.97447C7.48325 8.23703 7.90894 8.23703 8.1715 7.97447C8.43406 7.71191 8.43406 7.28626 8.1715 7.0237L5.3192 4.17141Z" fill="white"/>
</svg>
