<svg width="8" height="8" viewBox="0 0 8 8" fill="none" xmlns="http://www.w3.org/2000/svg">
<path d="M3.59514 0.58143C3.59514 0.284046 3.83622 0.0429688 4.1336 0.0429688H4.67206C4.96945 0.0429688 5.21052 0.284046 5.21052 0.58143V6.50451C5.21052 6.80189 4.96945 7.04297 4.67206 7.04297H4.1336C3.83622 7.04297 3.59514 6.80189 3.59514 6.50451V0.58143Z" fill="white"/>
<path d="M1.44129 4.35066C1.14391 4.35066 0.902832 4.10958 0.902832 3.8122V3.27374C0.902832 2.97635 1.14391 2.73528 1.44129 2.73528H7.36437C7.66176 2.73528 7.90283 2.97635 7.90283 3.27374V3.8122C7.90283 4.10958 7.66176 4.35066 7.36437 4.35066H1.44129Z" fill="white"/>
</svg>
