<svg width="11" height="12" viewBox="0 0 11 12" fill="none" xmlns="http://www.w3.org/2000/svg">
<path fill-rule="evenodd" clip-rule="evenodd" d="M6.80759 5.56863L10.7295 1.64672C11.0905 1.2857 11.0905 0.700382 10.7295 0.339417C10.3685 -0.0215989 9.78321 -0.0215989 9.42219 0.339417L5.50023 4.26138L1.57827 0.339366C1.21725 -0.0216506 0.631984 -0.0216506 0.270968 0.339366C-0.0899971 0.700382 -0.0899971 1.2857 0.270968 1.64667L4.19293 5.56858L0.270968 9.49054C-0.0899971 9.85155 -0.0899971 10.4369 0.270968 10.7978C0.631984 11.1589 1.21725 11.1589 1.57827 10.7978L5.50023 6.87588L9.42219 10.7978C9.78316 11.1589 10.3685 11.1589 10.7295 10.7978C11.0905 10.4368 11.0905 9.85155 10.7295 9.49054L6.80759 5.56863Z" fill="#E30613"/>
</svg>
