<svg viewBox="0 0 15 14" fill="none" xmlns="http://www.w3.org/2000/svg">
<path d="M7.35157 0.138306C3.62295 0.138306 0.589478 3.17178 0.589478 6.9004C0.589478 10.629 3.62295 13.6625 7.35157 13.6625C11.0802 13.6625 14.1137 10.629 14.1137 6.9004C14.1137 3.17178 11.0802 0.138306 7.35157 0.138306ZM7.35157 12.2236C4.41636 12.2236 2.0282 9.83574 2.0282 6.9004C2.0282 3.96505 4.41636 1.57716 7.35157 1.57716C10.2868 1.57716 12.6749 3.96505 12.6749 6.9004C12.6749 9.83574 10.2868 12.2236 7.35157 12.2236Z" fill="white"/>
<path d="M10.8757 6.69173H7.83683V3.03786C7.83683 2.73038 7.58753 2.48108 7.28005 2.48108C6.97256 2.48108 6.72327 2.73038 6.72327 3.03786V7.24851C6.72327 7.55599 6.97256 7.80529 7.28005 7.80529H10.8757C11.1832 7.80529 11.4325 7.55599 11.4325 7.24851C11.4325 6.94102 11.1832 6.69173 10.8757 6.69173Z" fill="white"/>
</svg>
